<?xml version="1.0" encoding="UTF-8"?>
<!DOCTYPE svg PUBLIC "-//W3C//DTD SVG 1.1//EN" "http://www.w3.org/Graphics/SVG/1.1/DTD/svg11.dtd">
<!-- Creator: CorelDRAW X7 -->
<svg xmlns="http://www.w3.org/2000/svg" xml:space="preserve" width="5in" height="1.5in" version="1.1" style="shape-rendering:geometricPrecision; text-rendering:geometricPrecision; image-rendering:optimizeQuality; fill-rule:evenodd; clip-rule:evenodd"
viewBox="0 0 5000 1500"
 xmlns:xlink="http://www.w3.org/1999/xlink">
 <defs>
  <style type="text/css">
   <![CDATA[
    .fil2 {fill:#18B9E1}
    .fil1 {fill:#0A80B5}
    .fil3 {fill:#4B4B4D;fill-rule:nonzero}
    .fil0 {fill:#0D71B3;fill-rule:nonzero}
   ]]>
  </style>
 </defs>
 <g id="Layer_x0020_1">
  <metadata id="CorelCorpID_0Corel-Layer"/>
  <path class="fil0" d="M116 1186l0 -159 186 0 0 -89 -186 0 0 -138 197 0 0 -91 -306 0 0 568 318 0 0 -91 -209 0zm310 -223c27,-16 64,-28 101,-28 60,0 74,31 74,72 -130,0 -224,49 -224,155 0,67 47,124 123,124 46,0 86,-19 110,-52l2 0 6 43 99 0c-5,-25 -6,-61 -6,-97l0 -151c0,-90 -35,-172 -163,-172 -64,0 -115,19 -143,35l21 71zm178 173c0,53 -43,71 -68,71 -28,0 -52,-17 -52,-56 0,-60 61,-74 120,-74l0 59zm179 121c28,17 71,28 116,28 103,0 162,-52 162,-130 0,-57 -32,-97 -102,-126 -47,-20 -63,-32 -63,-55 0,-22 18,-39 51,-39 31,0 60,12 78,21l21 -76c-24,-13 -60,-23 -102,-23 -92,0 -151,56 -151,130 0,45 28,88 105,120 45,19 59,32 59,57 0,25 -18,42 -57,42 -34,0 -75,-15 -96,-28l-21 79zm681 -153c2,-12 3,-27 3,-43 0,-133 -65,-204 -165,-204 -120,0 -188,102 -188,220 0,128 72,208 199,208 51,0 99,-9 134,-24l-16 -75c-28,9 -60,17 -101,17 -59,0 -109,-28 -112,-99l246 0zm-246 -76c3,-41 25,-95 78,-95 54,0 71,52 70,95l-148 0zm714 -319l-64 213c-19,68 -36,137 -50,201l-2 0c-12,-65 -29,-132 -47,-201l-61 -213 -136 0 -38 568 100 0 11 -219c3,-70 7,-154 9,-226l2 0c13,70 31,147 49,211l63 226 83 0 69 -230c20,-63 40,-139 57,-207l2 0c-1,58 3,150 6,224l10 221 104 0 -32 -568 -135 0zm433 372c-6,26 -13,54 -17,77l-2 0c-6,-23 -13,-52 -20,-77l-60 -216 -120 0 138 379c3,8 5,14 5,19 0,8 -19,50 -55,76 -19,13 -40,25 -58,30l28 93c24,-5 66,-20 106,-58 47,-47 81,-119 127,-252l93 -287 -113 0 -52 216zm178 -372l0 94 140 0 0 474 109 0 0 -474 141 0 0 -94 -390 0zm543 228l-4 -72 -94 0c2,37 3,78 3,129l0 283 109 0 0 -213c0,-70 38,-103 88,-103 11,0 20,1 28,2l0 -104c-8,-2 -14,-2 -25,-2 -38,0 -82,27 -102,80l-3 0zm304 -184c0,-34 -24,-58 -60,-58 -34,0 -58,24 -58,58 0,33 24,59 58,59 34,0 60,-23 60,-59zm-114 112l0 412 110 0 0 -412 -110 0zm301 0l-96 0c2,38 3,82 3,135l0 442 110 0 0 -205 1 0c18,28 53,49 98,49 83,0 169,-67 169,-219 0,-126 -67,-210 -157,-210 -53,0 -95,23 -122,65l-1 0 -5 -57zm17 169c0,-49 33,-89 75,-89 54,0 82,53 82,126 0,74 -29,129 -84,129 -37,0 -73,-29 -73,-89l0 -77z"/>
  <g id="_315309912">
   <path class="fil1" d="M714 919c301,-608 1123,-143 1580,-549 -455,475 -1355,74 -1580,549z"/>
   <g>
    <path class="fil2" d="M1778 4l1067 88c52,3 44,13 18,38l-521 510c-29,32 -35,23 -70,-15l-204 -230c-27,-29 -31,-35 15,-52l506 -163 -569 102c-43,9 -38,15 -68,-28l-190 -217c-23,-26 -21,-39 16,-33z"/>
    <path class="fil1" d="M2085 381l55 59c27,29 20,30 -11,49l-176 82c-21,13 -34,2 -20,-21l112 -180c11,-21 23,-10 40,11z"/>
   </g>
  </g>
  <path class="fil3" d="M3850 1443c8,0 13,-3 16,-8 2,-6 3,-12 3,-19 0,-6 -2,-11 -7,-15 -5,-4 -10,-6 -15,-6 -7,0 -12,3 -15,9 -2,6 -4,12 -4,18 0,6 2,11 7,15 4,4 9,6 15,6zm155 11c15,0 30,-2 44,-8 15,-5 28,-12 40,-20 12,-9 24,-19 34,-31 10,-11 18,-23 25,-36 1,-2 2,-4 3,-6 1,-2 2,-4 2,-6 0,-6 -3,-8 -8,-8 -4,0 -7,1 -9,4 -3,3 -5,6 -7,9 -5,9 -12,19 -19,27 -7,9 -16,17 -25,24 -9,7 -19,12 -29,16 -10,4 -21,7 -33,7 -11,0 -20,-4 -27,-11 -5,-5 -9,-11 -11,-19 -2,-7 -3,-16 -3,-25 0,-9 1,-19 3,-29 2,-10 5,-20 8,-29 3,-9 7,-17 12,-25 4,-8 8,-14 13,-18 3,-4 7,-7 11,-10 5,-2 9,-3 14,-3 6,0 10,2 11,6 1,5 2,9 2,14 0,8 -2,15 -5,21 -3,6 -5,11 -5,14 0,4 2,6 6,6 5,0 9,-2 13,-6 5,-4 9,-10 10,-18 2,-8 2,-15 2,-21 0,-14 -3,-24 -11,-30 -8,-6 -18,-9 -31,-9 -11,0 -21,2 -31,7 -9,4 -17,10 -25,18 -6,6 -11,13 -16,21 -6,8 -10,17 -14,26 -3,10 -6,19 -8,29 -2,10 -3,21 -3,31 0,14 2,27 6,40 4,12 10,23 20,32 5,5 11,9 17,12 7,3 15,4 24,4zm127 -71c0,24 5,41 15,53 10,11 22,17 35,17 11,0 22,-3 34,-9 11,-7 21,-15 31,-27 9,-12 17,-27 23,-44 6,-17 9,-37 9,-59 0,-9 -1,-18 -4,-27 -2,-8 -5,-15 -9,-21 -4,-7 -9,-12 -15,-15 -6,-4 -13,-6 -21,-6 -15,0 -28,5 -40,13 -12,9 -22,20 -30,34 -9,13 -16,28 -21,44 -4,16 -7,32 -7,47zm98 -103c9,0 15,4 20,13 4,8 6,19 7,31 0,16 -2,31 -6,43 -4,13 -9,24 -15,33 -6,9 -13,15 -20,20 -7,5 -14,7 -20,7 -8,0 -14,-3 -19,-10 -5,-7 -8,-18 -7,-34 0,-10 1,-22 5,-34 3,-12 7,-23 13,-34 5,-10 11,-18 18,-25 8,-7 15,-10 24,-10zm239 160c3,0 6,-1 8,-2 3,-2 5,-4 6,-7 3,-4 7,-11 12,-21 5,-9 11,-19 17,-31 7,-11 14,-23 22,-35 8,-12 15,-24 22,-34 7,-10 14,-18 20,-24 6,-7 11,-10 15,-10 3,0 5,1 6,3 1,2 2,4 2,7 1,2 1,5 1,8 0,2 0,4 0,6 0,16 -1,31 -2,46 -2,15 -3,30 -3,46 0,6 1,13 1,21 1,8 2,16 5,23 2,7 6,13 10,18 5,5 12,8 20,8 9,0 19,-3 30,-9 10,-6 21,-13 31,-22 10,-8 19,-17 28,-27 9,-9 16,-17 21,-24 1,-2 2,-3 3,-5 1,-2 2,-4 2,-6 0,-2 0,-5 -1,-7 -1,-3 -3,-4 -6,-4 -4,0 -7,2 -10,5 -2,4 -5,6 -6,9 -4,4 -8,10 -14,17 -7,7 -14,14 -21,21 -8,7 -15,12 -22,17 -8,5 -15,7 -21,7 -3,0 -6,-1 -8,-3 -2,-3 -3,-6 -4,-9 -1,-3 -2,-6 -2,-10 0,-4 0,-7 0,-9 0,-20 2,-40 4,-59 3,-19 4,-39 4,-59 0,-4 -1,-9 -2,-14 -1,-5 -3,-10 -6,-14 -2,-4 -6,-8 -10,-11 -4,-2 -9,-4 -15,-4 -8,0 -15,3 -23,8 -7,5 -14,11 -19,16 -6,7 -12,15 -18,23 -6,8 -11,16 -16,23 -7,11 -14,21 -22,30 -7,10 -13,21 -19,31 -1,1 -2,2 -4,5 -1,3 -3,4 -4,4 -1,0 -1,-1 -2,-4 -1,-3 -1,-7 -1,-11 -1,-4 -1,-8 -1,-12 0,-4 0,-7 0,-9 0,-10 0,-20 1,-30 0,-10 0,-21 0,-31 0,-3 0,-7 -1,-12 0,-5 -1,-10 -3,-14 -1,-5 -3,-9 -6,-12 -3,-3 -7,-4 -12,-4 -7,0 -14,3 -23,11 -8,7 -16,15 -24,25 -8,10 -15,20 -22,30 -7,9 -12,17 -15,23 2,-10 4,-20 6,-30 3,-11 6,-20 10,-30 1,-3 3,-7 5,-12 2,-5 4,-10 6,-15 2,-5 4,-10 5,-15 2,-5 2,-9 2,-12 0,-4 -1,-7 -2,-9 -2,-3 -5,-4 -9,-4 -7,0 -14,2 -23,5 -8,4 -14,9 -17,16 -2,4 -5,11 -8,22 -3,10 -6,22 -9,36 -3,13 -6,28 -9,43 -3,15 -6,29 -9,43 -2,14 -4,27 -6,38 -1,12 -2,20 -2,26 0,3 1,6 3,8 1,2 4,3 7,3 5,0 9,-1 12,-5 3,-3 5,-6 7,-10 2,-4 5,-11 10,-20 5,-10 11,-20 17,-31 7,-11 14,-23 22,-35 7,-12 15,-24 22,-34 7,-10 13,-18 19,-24 6,-7 11,-10 14,-10 3,0 5,1 5,4 0,3 1,5 1,7 0,3 0,8 0,15 0,6 0,14 0,24 0,8 0,18 0,28 0,10 1,20 2,29 0,10 1,19 3,27 1,8 2,15 4,20 3,7 6,10 9,10z"/>
 </g>
</svg>
